<?xml version="1.0" ?><svg data-name="Layer 1" id="Layer_1" viewBox="0 0 32 32" xmlns="http://www.w3.org/2000/svg"><path fill="#8aff00" d="M16.345.68337c0,4.60627-.626,7.97327-2.09179,10.37787C11.51643,10.39736,8.693,8.45919,5.43587,5.20211,8.693,8.45919,10.63112,11.28268,11.295,14.01943c-2.40461,1.46582-5.7716,2.0918-10.37787,2.0918,4.60627,0,7.97326.626,10.37787,2.0918-.66388,2.73675-2.60205,5.56024-5.85913,8.81732,3.25708-3.25708,6.0805-5.19525,8.81732-5.85913C15.719,23.56588,16.345,26.93289,16.345,31.53909c0-4.6062.626-7.97321,2.0918-10.37787,2.73682.66388,5.56024,2.602,8.81732,5.85913C23.997,23.76327,22.05885,20.93984,21.395,18.203c2.40467-1.46576,5.77167-2.0918,10.37787-2.0918-4.6062,0-7.9732-.626-10.37787-2.0918.66388-2.73681,2.602-5.56024,5.85913-8.81732-3.25708,3.25708-6.08056,5.19525-8.81732,5.85913C16.971,8.65664,16.345,5.28964,16.345.68337ZM27.2541,5.20211h0Z"/></svg>